<?xml version="1.0" encoding="UTF-8" standalone="no"?>
<!-- Created with Inkscape (http://www.inkscape.org/) -->

<svg
   width="200"
   height="39"
   viewBox="0 0 52.916667 10.31875"
   version="1.1"
   id="svg248"
   inkscape:version="1.2 (dc2aedaf03, 2022-05-15)"
   sodipodi:docname="logo.svg"
   xmlns:inkscape="http://www.inkscape.org/namespaces/inkscape"
   xmlns:sodipodi="http://sodipodi.sourceforge.net/DTD/sodipodi-0.dtd"
   xmlns="http://www.w3.org/2000/svg"
   xmlns:svg="http://www.w3.org/2000/svg">
  <sodipodi:namedview
     id="namedview250"
     pagecolor="#ffffff"
     bordercolor="#666666"
     borderopacity="1.0"
     inkscape:showpageshadow="2"
     inkscape:pageopacity="0"
     inkscape:pagecheckerboard="true"
     inkscape:deskcolor="#d1d1d1"
     inkscape:document-units="mm"
     showgrid="false"
     inkscape:zoom="8"
     inkscape:cx="141.9375"
     inkscape:cy="11"
     inkscape:window-width="1920"
     inkscape:window-height="1017"
     inkscape:window-x="-8"
     inkscape:window-y="-8"
     inkscape:window-maximized="1"
     inkscape:current-layer="layer1" />
  <defs
     id="defs245" />
  <g
     inkscape:label="Layer 1"
     inkscape:groupmode="layer"
     id="layer1">
    <text
       xml:space="preserve"
       style="font-style:normal;font-weight:normal;font-size:5.8005px;line-height:1.25;font-family:sans-serif;letter-spacing:0px;fill:#000000;fill-opacity:1;stroke:none;stroke-width:0.264161"
       x="17.821018"
       y="6.4491777"
       id="text371"
       transform="scale(0.95260449,1.0497536)"><tspan
         sodipodi:role="line"
         id="tspan369"
         style="font-style:normal;font-variant:normal;font-weight:bold;font-stretch:normal;font-size:5.8005px;font-family:sans-serif;-inkscape-font-specification:'sans-serif Bold';fill:#000000;fill-opacity:1;stroke-width:0.264161"
         x="17.821018"
         y="6.4491777">microXpace</tspan></text>
    <g
       id="g6986"
       transform="matrix(0.02384414,0,0,0.0238457,10.014123,10.011174)">
      <circle
         style="fill:#419a1c;fill-opacity:1;stroke:none;stroke-width:0.457983"
         id="path6840-7"
         cx="61.365406"
         cy="-343.13785"
         r="39.578869" />
      <path
         id="path3528-5"
         style="fill:#083b66;fill-opacity:1;fill-rule:evenodd;stroke-width:1.00932"
         d="m -135.54101,-385.59232 a 166.89189,166.89189 0 0 0 -166.89062,166.89258 166.89189,166.89189 0 0 0 166.89062,166.892578 166.89189,166.89189 0 0 0 166.892581,-166.892578 166.89189,166.89189 0 0 0 -0.0566,-2.31836 28.756756,28.756756 0 0 0 6.32618,0.77734 28.756756,28.756756 0 0 0 27.75781,-22.44726 l 24.005859,0.39062 a 53.405403,53.405403 0 0 0 52.88476,46.13867 53.405403,53.405403 0 0 0 41.42969,-19.85937 l 27.03515,19.61914 a 31.324324,31.324324 0 0 0 -1.70703,9.99609 31.324324,31.324324 0 0 0 31.32422,31.32422 31.324324,31.324324 0 0 0 31.32422,-31.32422 31.324324,31.324324 0 0 0 -31.32422,-31.32422 31.324324,31.324324 0 0 0 -20.92187,8.06055 l -28.76368,-17.37695 a 53.405403,53.405403 0 0 0 5.00977,-22.52149 53.405403,53.405403 0 0 0 -11.01172,-32.45508 l 24.12695,-27.28906 a 21.567568,21.567568 0 0 0 9.47852,2.23047 21.567568,21.567568 0 0 0 21.56836,-21.56641 21.567568,21.567568 0 0 0 -21.56836,-21.56835 21.567568,21.567568 0 0 0 -21.56641,21.56835 21.567568,21.567568 0 0 0 2.33008,9.65821 l -26.55078,25.39844 a 53.405403,53.405403 0 0 0 -30.21289,-9.38086 53.405403,53.405403 0 0 0 -28.73828,8.40234 l -36.085939,-36.9375 a 19,19 0 0 0 4.744139,-12.54688 19,19 0 0 0 -18.999999,-19 19,19 0 0 0 -19,19 19,19 0 0 0 19,19 19,19 0 0 0 9.4336,-2.55859 l 30.292959,42.06641 a 53.405403,53.405403 0 0 0 -13.51171,28.42968 l -24.185549,0.19141 a 28.756756,28.756756 0 0 0 -27.59765,-20.83203 28.756756,28.756756 0 0 0 -15.4668,4.52148 166.89189,166.89189 0 0 0 -157.695321,-112.35937 z" />
      <path
         id="path6840-2"
         style="fill:#419a1c;fill-opacity:1;stroke:none;stroke-width:0.764706"
         d="m -264.52734,-397.26969 a 46.114826,46.114826 0 0 0 -46.11524,46.11523 46.114826,46.114826 0 0 0 46.11524,46.11524 46.114826,46.114826 0 0 0 15.04101,-2.53321 l 42.47656,62.55469 a 111.83753,111.83753 0 0 0 -32.27929,78.50195 111.83753,111.83753 0 0 0 5.1582,33.18555 l -63.69726,28.24219 a 66.085815,66.085815 0 0 0 -50.0293,-22.93946 66.085815,66.085815 0 0 0 -66.08594,66.085946 66.085815,66.085815 0 0 0 66.08594,66.0859369 66.085815,66.085815 0 0 0 66.08398,-66.0859369 66.085815,66.085815 0 0 0 -1.23047,-12.66211 l 60.26368,-33.654296 a 111.83753,111.83753 0 0 0 95.28906,53.578125 111.83753,111.83753 0 0 0 107.441404,-80.949225 l 49.585938,3.58008 a 59.710484,59.368301 0 0 0 59.20312,52.320316 59.710484,59.368301 0 0 0 59.710938,-59.367196 59.710484,59.368301 0 0 0 -59.710938,-59.36914 59.710484,59.368301 0 0 0 -55.517573,37.91602 l -48.929688,-8.22461 a 111.83753,111.83753 0 0 0 -20.58789,-62.42383 l 74.927734,-81.27929 -9.025391,-8.38282 -85.52539,68.42774 a 111.83753,111.83753 0 0 0 -71.572264,-25.92188 111.83753,111.83753 0 0 0 -51.39649,13.10938 l -47.96679,-59.49414 a 46.114826,46.114826 0 0 0 8.40234,-26.41602 46.114826,46.114826 0 0 0 -46.11523,-46.11523 z" />
    </g>
    <text
       xml:space="preserve"
       style="font-style:normal;font-weight:normal;font-size:10.5833px;line-height:1.25;font-family:sans-serif;fill:#000000;fill-opacity:1;stroke:none;stroke-width:0.264583"
       x="49.973175"
       y="10.252604"
       id="text25765"><tspan
         sodipodi:role="line"
         id="tspan25763"
         style="stroke-width:0.264583"
         x="49.973175"
         y="10.252604"></tspan></text>
  </g>
</svg>
