<?xml version="1.0" encoding="UTF-8" standalone="no"?>
<!-- Created with Inkscape (http://www.inkscape.org/) -->

<svg
   width="210"
   height="39"
   viewBox="0 0 55.5625 10.31875"
   version="1.1"
   id="svg248"
   inkscape:version="1.2 (dc2aedaf03, 2022-05-15)"
   sodipodi:docname="white-logo.svg"
   xmlns:inkscape="http://www.inkscape.org/namespaces/inkscape"
   xmlns:sodipodi="http://sodipodi.sourceforge.net/DTD/sodipodi-0.dtd"
   xmlns="http://www.w3.org/2000/svg"
   xmlns:svg="http://www.w3.org/2000/svg">
  <sodipodi:namedview
     id="namedview250"
     pagecolor="#ffffff"
     bordercolor="#666666"
     borderopacity="1.0"
     inkscape:showpageshadow="2"
     inkscape:pageopacity="0"
     inkscape:pagecheckerboard="true"
     inkscape:deskcolor="#d1d1d1"
     inkscape:document-units="mm"
     showgrid="false"
     inkscape:zoom="8"
     inkscape:cx="137.25"
     inkscape:cy="-2.375"
     inkscape:window-width="1920"
     inkscape:window-height="1017"
     inkscape:window-x="-8"
     inkscape:window-y="-8"
     inkscape:window-maximized="1"
     inkscape:current-layer="layer1" />
  <defs
     id="defs245" />
  <g
     inkscape:label="Layer 1"
     inkscape:groupmode="layer"
     id="layer1">
    <text
       xml:space="preserve"
       style="font-style:normal;font-weight:normal;font-size:5.8005px;line-height:1.25;font-family:sans-serif;letter-spacing:0.15875px;fill:#000000;fill-opacity:1;stroke:none;stroke-width:0.264161"
       x="19.105595"
       y="6.4491777"
       id="text371"
       transform="scale(0.95260449,1.0497536)"><tspan
         sodipodi:role="line"
         id="tspan369"
         style="font-style:normal;font-variant:normal;font-weight:bold;font-stretch:normal;font-size:5.8005px;font-family:sans-serif;-inkscape-font-specification:'sans-serif Bold';fill:#ffffff;fill-opacity:1;stroke-width:0.264161"
         x="19.105595"
         y="6.4491777">microXpace</tspan></text>
    <g
       id="g15830"
       transform="translate(-0.42994791)">
      <path
         id="path3528"
         style="fill:#ffffff;fill-opacity:0.53886;fill-rule:evenodd;stroke-width:0.0240666"
         d="m 7.2120377,0.81682576 a 3.9794286,3.9794286 0 0 0 -3.9793983,3.97944514 3.9794286,3.9794286 0 0 0 3.9793983,3.979445 3.9794286,3.9794286 0 0 0 3.9794453,-3.979445 3.9794286,3.9794286 0 0 0 -0.0014,-0.05528 0.68568615,0.68568615 0 0 0 0.150844,0.018535 0.68568615,0.68568615 0 0 0 0.661867,-0.5352403 l 0.572404,0.00931 a 1.2734171,1.2734171 0 0 0 1.261003,1.1001466 1.2734171,1.2734171 0 0 0 0.987864,-0.4735338 L 15.4687,5.3280141 A 0.74690814,0.74690814 0 0 0 15.428,5.5663643 0.74690814,0.74690814 0 0 0 16.174906,6.31327 0.74690814,0.74690814 0 0 0 16.921812,5.5663643 0.74690814,0.74690814 0 0 0 16.174906,4.8194587 0.74690814,0.74690814 0 0 0 15.676038,5.0116572 L 14.990233,4.5973196 A 1.2734171,1.2734171 0 0 0 15.109688,4.0603093 1.2734171,1.2734171 0 0 0 14.847121,3.286439 l 0.575291,-0.6506899 a 0.51426464,0.51426464 0 0 0 0.226009,0.053184 0.51426464,0.51426464 0 0 0 0.514284,-0.514237 0.51426464,0.51426464 0 0 0 -0.514284,-0.5142833 0.51426464,0.51426464 0 0 0 -0.514237,0.5142833 0.51426464,0.51426464 0 0 0 0.05556,0.2302937 L 14.556657,3.0105992 A 1.2734171,1.2734171 0 0 0 13.836251,2.7869187 1.2734171,1.2734171 0 0 0 13.151005,2.987267 L 12.290559,2.1065163 a 0.45304265,0.45304265 0 0 0 0.113121,-0.2991722 0.45304265,0.45304265 0 0 0 -0.453042,-0.4530426 0.45304265,0.45304265 0 0 0 -0.453043,0.4530426 0.45304265,0.45304265 0 0 0 0.453043,0.4530427 0.45304265,0.45304265 0 0 0 0.224938,-0.061008 l 0.722316,1.0030462 a 1.2734171,1.2734171 0 0 0 -0.322178,0.6778872 l -0.576689,0.00456 A 0.68568615,0.68568615 0 0 0 11.340977,3.3881502 0.68568615,0.68568615 0 0 0 10.972181,3.4959619 3.9794286,3.9794286 0 0 0 7.2120387,0.81682576 Z" />
      <path
         id="path6840"
         style="fill:#ffffff;fill-opacity:1;stroke:none;stroke-width:0.0182339"
         d="M 4.1366984,0.53846842 A 1.0995781,1.0995781 0 0 0 3.0370239,1.6381429 1.0995781,1.0995781 0 0 0 4.1366984,2.7378174 1.0995781,1.0995781 0 0 0 4.4953328,2.677356 L 5.5076742,4.1687378 A 2.6666932,2.6666932 0 0 0 4.7382121,6.0404582 2.6666932,2.6666932 0 0 0 4.861202,6.8316243 L 3.3424316,7.505485 A 1.5757733,1.5757733 0 0 0 2.1497396,6.9582316 1.5757733,1.5757733 0 0 0 0.5736084,8.533846 1.5757733,1.5757733 0 0 0 2.1497396,10.109977 1.5757733,1.5757733 0 0 0 3.725354,8.533846 1.5757733,1.5757733 0 0 0 3.6958984,8.2320557 L 5.13302,7.4295207 A 2.6666932,2.6666932 0 0 0 7.404716,8.7069621 2.6666932,2.6666932 0 0 0 9.9668335,6.7768473 L 11.14919,6.8626302 A 1.4237577,1.4155985 0 0 0 12.56099,8.1100993 1.4237577,1.4155985 0 0 0 13.984676,6.694165 1.4237577,1.4155985 0 0 0 12.56099,5.2787476 1.4237577,1.4155985 0 0 0 11.23704,6.1830851 L 10.070186,5.9867147 A 2.6666932,2.6666932 0 0 0 9.5792603,4.4984334 L 11.34401,2.5843384 a 0.94373238,0.94373238 0 0 0 0.562757,0.1870687 0.94373238,0.94373238 0 0 0 0.550354,-0.1813843 L 12.174967,2.1977987 a 0.45304265,0.45304265 0 0 1 -0.224792,0.060978 0.45304265,0.45304265 0 0 1 -0.453202,-0.4532024 0.45304265,0.45304265 0 0 1 0.453202,-0.4526855 0.45304265,0.45304265 0 0 1 0.453202,0.4526855 0.45304265,0.45304265 0 0 1 -0.113171,0.2992066 l 0.330212,0.3384806 A 0.94373238,0.94373238 0 0 0 12.850378,1.8277954 0.94373238,0.94373238 0 0 0 11.906767,0.88366699 0.94373238,0.94373238 0 0 0 10.962638,1.8277954 0.94373238,0.94373238 0 0 0 11.136271,2.372465 L 9.1115885,3.9920044 A 2.6666932,2.6666932 0 0 0 7.404716,3.3739543 2.6666932,2.6666932 0 0 0 6.1794678,3.6865967 L 5.0358683,2.2680786 A 1.0995781,1.0995781 0 0 0 5.2358561,1.6381429 1.0995781,1.0995781 0 0 0 4.1366984,0.53846842 Z" />
    </g>
    <text
       xml:space="preserve"
       style="font-style:normal;font-weight:normal;font-size:10.5833px;line-height:1.25;font-family:sans-serif;fill:#000000;fill-opacity:1;stroke:none;stroke-width:0.264583"
       x="49.973175"
       y="10.252604"
       id="text25765"><tspan
         sodipodi:role="line"
         id="tspan25763"
         style="stroke-width:0.264583"
         x="49.973175"
         y="10.252604"></tspan></text>
  </g>
</svg>
